<!DOCTYPE svg PUBLIC "-//W3C//DTD SVG 20010904//EN" "http://www.w3.org/TR/2001/REC-SVG-20010904/DTD/svg10.dtd">
<svg version="1.0" xmlns="http://www.w3.org/2000/svg" viewBox="0 0 810 770" preserveAspectRatio="xMidYMid meet">
<g id="layer101" fill="#ffe553" stroke="none">
 <path d="M284 755 c-12 -31 4 -45 51 -45 l46 0 -3 -72 c-3 -72 -3 -72 -36 -82 -44 -12 -116 -78 -149 -134 -32 -56 -35 -58 -83 -66 -26 -4 -47 -17 -69 -41 -37 -43 -43 -63 -39 -140 l3 -60 68 -10 c65 -9 70 -12 96 -50 14 -21 38 -42 51 -46 14 -4 99 -7 190 -8 149 -1 168 1 198 19 18 11 38 33 43 49 9 26 15 29 70 34 33 3 66 11 74 17 21 18 20 117 -2 157 -21 39 -79 83 -107 83 -29 0 -36 7 -85 77 -43 61 -91 103 -143 122 -27 10 -28 13 -28 80 l0 70 48 3 c43 3 47 5 47 28 l0 25 -118 3 c-98 2 -118 0 -123 -13z m226 -303 c70 -73 84 -109 88 -238 6 -158 10 -154 -196 -154 -206 0 -197 -6 -195 139 2 88 7 121 23 159 40 90 107 142 184 142 46 0 53 -3 96 -48z m-366 -183 c3 -17 6 -49 6 -70 0 -42 -4 -44 -59 -33 -28 6 -31 10 -31 42 0 25 8 44 27 64 35 36 49 35 57 -3z m576 1 c13 -13 20 -33 20 -60 0 -36 -3 -40 -24 -40 -13 0 -31 -3 -40 -6 -13 -5 -16 2 -16 37 0 88 20 109 60 69z"/>
 </g>
<g id="layer102" fill="#fff7c0" stroke="none">
 <path d="M330 489 c-19 -12 -46 -35 -60 -53 -20 -25 -16 -24 22 11 46 41 62 49 123 56 24 3 22 4 -10 5 -25 1 -54 -6 -75 -19z"/>
 <path d="M515 450 c47 -55 48 -56 37 -35 -6 11 -23 31 -39 45 l-28 25 30 -35z"/>
 <path d="M138 285 c2 -14 6 -25 8 -25 2 0 4 11 4 25 0 14 -4 25 -9 25 -4 0 -6 -11 -3 -25z"/>
 <path d="M661 283 c1 -17 3 -21 6 -10 12 47 73 -4 73 -62 0 -37 -2 -40 -32 -44 l-33 -4 36 -1 c32 -2 38 2 43 24 10 38 -22 95 -61 111 -33 13 -33 13 -32 -14z"/>
 <path d="M203 250 c0 -30 2 -43 4 -27 2 15 2 39 0 55 -2 15 -4 2 -4 -28z"/>
 <path d="M53 198 c1 -26 7 -33 25 -34 17 -1 18 -1 3 3 -12 3 -22 15 -25 34 -6 28 -6 27 -3 -3z"/>
 <path d="M657 103 c-4 -3 -7 -11 -7 -17 0 -7 3 -7 8 1 4 6 28 13 52 16 l45 4 -46 1 c-25 1 -49 -1 -52 -5z"/>
 </g>

</svg>