<!DOCTYPE svg PUBLIC "-//W3C//DTD SVG 20010904//EN" "http://www.w3.org/TR/2001/REC-SVG-20010904/DTD/svg10.dtd">
<svg version="1.0" xmlns="http://www.w3.org/2000/svg" width="75px" height="75px" viewBox="0 0 750 750" preserveAspectRatio="xMidYMid meet">
<g id="layer101" fill="#fee778" stroke="none">
 <path d="M187 705 c-35 -32 -68 -50 -118 -67 -38 -12 -69 -28 -69 -35 0 -7 5 -13 10 -13 6 0 10 -7 10 -16 0 -9 17 -43 37 -76 l38 -61 0 -126 c0 -141 7 -163 73 -229 61 -61 95 -72 220 -72 108 0 111 1 158 33 100 69 134 158 119 310 -6 68 -5 75 27 137 18 36 37 68 41 71 5 3 10 26 12 50 3 24 2 36 -1 27 -4 -13 -11 -15 -32 -8 -15 5 -43 11 -62 14 -25 4 -51 21 -85 56 -27 28 -54 50 -60 50 -6 0 -34 -34 -63 -75 -29 -41 -57 -75 -62 -75 -5 0 -35 34 -66 75 -31 41 -62 75 -68 75 -6 -1 -33 -21 -59 -45z m392 -100 c29 -19 59 -35 67 -35 8 0 14 -3 14 -6 0 -12 -42 -74 -50 -74 -4 0 -34 16 -66 35 -32 19 -61 35 -66 35 -13 0 -9 17 13 54 12 20 24 34 28 31 5 -2 32 -20 60 -40z m-308 -2 c13 -20 18 -38 13 -40 -5 -2 -40 -21 -77 -43 l-67 -39 -15 29 c-8 16 -15 35 -15 42 0 12 112 86 132 88 3 0 17 -17 29 -37z m178 -118 c99 -35 143 -99 144 -211 1 -51 -4 -69 -26 -102 -48 -73 -119 -112 -206 -112 -36 0 -58 8 -98 35 -106 71 -135 178 -78 284 57 104 156 144 264 106z"/>
 <path d="M271 411 c-59 -63 -75 -133 -46 -194 41 -87 95 -114 189 -96 82 15 126 71 126 159 0 57 -15 93 -55 130 -23 21 -38 25 -106 29 -77 3 -80 2 -108 -28z m170 -61 c26 -26 30 -36 27 -77 -3 -41 -7 -50 -37 -70 -47 -32 -77 -29 -117 11 -46 46 -46 86 0 132 45 45 86 46 127 4z"/>
 </g>

</svg>