<!DOCTYPE svg PUBLIC "-//W3C//DTD SVG 20010904//EN" "http://www.w3.org/TR/2001/REC-SVG-20010904/DTD/svg10.dtd">
<svg version="1.0" xmlns="http://www.w3.org/2000/svg" width="75px" height="75px" viewBox="0 0 750 750" preserveAspectRatio="xMidYMid meet">
<g id="layer101" fill="#ffe550" stroke="none">
 <path d="M198 710 c-39 -50 -64 -64 -140 -80 -32 -6 -58 -16 -58 -21 0 -6 23 -53 51 -105 l51 -95 -11 -60 c-26 -131 25 -249 138 -321 41 -26 53 -28 140 -28 72 0 106 5 138 19 48 22 114 85 139 133 22 42 31 173 15 221 -11 34 -9 40 38 124 70 122 69 125 -25 139 -40 6 -58 16 -105 60 -31 30 -60 54 -65 54 -5 0 -32 -37 -59 -83 -28 -45 -57 -82 -65 -82 -8 0 -39 36 -67 80 -29 44 -59 81 -67 83 -8 2 -29 -16 -48 -38z m57 -165 c-24 -12 -59 -33 -78 -48 l-35 -27 -27 46 c-29 50 -27 56 26 73 19 6 51 24 70 40 l34 29 27 -46 27 -46 -44 -21z m379 35 l36 -11 -20 -37 c-36 -69 -35 -68 -70 -38 -18 15 -51 36 -74 48 -22 11 -43 22 -45 24 -2 2 8 23 23 48 l27 45 44 -33 c24 -19 60 -39 79 -46z m-164 -91 c92 -42 134 -107 135 -210 0 -56 -4 -73 -30 -115 -43 -68 -108 -107 -191 -112 -54 -4 -70 -1 -107 21 -50 29 -103 86 -119 126 -20 52 -13 135 15 184 67 114 186 157 297 106z"/>
 <path d="M264 395 c-72 -75 -72 -155 0 -230 42 -44 44 -45 108 -45 51 0 72 5 99 23 92 61 92 213 0 274 -27 18 -48 23 -99 23 -64 0 -66 -1 -108 -45z m164 -19 c26 -13 43 -37 55 -78 3 -9 1 -33 -4 -53 -22 -79 -127 -99 -181 -34 -76 91 26 219 130 165z"/>
 </g>
<g id="layer102" fill="#fff3a2" stroke="none">
 <path d="M198 709 c-18 -22 -44 -47 -58 -55 -18 -11 -20 -14 -6 -12 16 3 117 108 103 108 -3 0 -21 -18 -39 -41z"/>
 <path d="M555 699 c28 -31 56 -57 64 -58 8 -1 12 0 10 2 -2 1 -31 27 -64 57 l-59 55 49 -56z"/>
 <path d="M337 610 c26 -48 57 -51 78 -8 l17 33 -26 -30 -26 -30 -32 35 -31 35 20 -35z"/>
 <path d="M715 540 c-9 -16 -13 -30 -11 -30 3 0 12 14 21 30 9 17 13 30 11 30 -3 0 -12 -13 -21 -30z"/>
 <path d="M71 468 c12 -24 25 -54 30 -68 6 -22 7 -23 8 -4 1 20 -45 114 -55 114 -2 0 5 -19 17 -42z"/>
 <path d="M582 485 c15 -16 29 -27 31 -24 3 2 -10 15 -27 28 l-31 24 27 -28z"/>
 <path d="M665 454 c-22 -38 -25 -50 -16 -68 l11 -21 -6 22 c-3 14 4 39 21 68 15 25 25 45 22 45 -3 0 -17 -21 -32 -46z"/>
 <path d="M225 459 c-20 -18 -40 -41 -46 -53 -6 -11 1 -7 15 11 15 17 39 41 54 52 15 11 24 21 20 21 -4 0 -23 -14 -43 -31z"/>
 <path d="M334 390 c-39 -15 -74 -68 -74 -111 0 -54 49 -108 105 -115 81 -11 146 69 124 150 -9 34 -50 76 -73 76 -6 -1 -1 -6 12 -13 52 -30 72 -110 39 -160 -38 -58 -129 -60 -172 -3 -56 74 -15 156 90 179 16 4 15 5 -5 5 -14 0 -34 -3 -46 -8z"/>
 <path d="M83 285 c0 -22 2 -30 4 -17 2 12 2 30 0 40 -3 9 -5 -1 -4 -23z"/>
 <path d="M205 122 c17 -19 39 -38 50 -44 11 -6 16 -7 10 -2 -5 5 -28 25 -50 44 l-40 35 30 -33z"/>
 <path d="M170 75 c19 -19 36 -35 39 -35 3 0 -10 16 -29 35 -19 19 -36 35 -39 35 -3 0 10 -16 29 -35z"/>
 <path d="M485 79 c-16 -10 -25 -19 -19 -19 7 0 22 9 35 20 30 24 23 24 -16 -1z"/>
 <path d="M220 35 c0 -8 61 -36 70 -33 5 2 -9 11 -30 20 -22 9 -40 15 -40 13z"/>
 </g>

</svg>